<?xml version="1.0" encoding="utf-8" standalone="no"?>
<!DOCTYPE svg PUBLIC "-//W3C//DTD SVG 1.1//EN"
  "http://www.w3.org/Graphics/SVG/1.1/DTD/svg11.dtd">
<svg xmlns:xlink="http://www.w3.org/1999/xlink" width="561.180937pt" height="309.274375pt" viewBox="0 0 561.180937 309.274375" xmlns="http://www.w3.org/2000/svg" version="1.1">
 <metadata>
  <rdf:RDF xmlns:dc="http://purl.org/dc/elements/1.1/" xmlns:cc="http://creativecommons.org/ns#" xmlns:rdf="http://www.w3.org/1999/02/22-rdf-syntax-ns#">
   <cc:Work>
    <dc:type rdf:resource="http://purl.org/dc/dcmitype/StillImage"/>
    <dc:date>2026-02-20T16:22:36.672996</dc:date>
    <dc:format>image/svg+xml</dc:format>
    <dc:creator>
     <cc:Agent>
      <dc:title>Matplotlib v3.5.1, https://matplotlib.org/</dc:title>
     </cc:Agent>
    </dc:creator>
   </cc:Work>
  </rdf:RDF>
 </metadata>
 <defs>
  <style type="text/css">*{stroke-linejoin: round; stroke-linecap: butt}</style>
 </defs>
 <g id="figure_1">
  <g id="patch_1">
   <path d="M 0 309.274375 
L 561.180937 309.274375 
L 561.180937 0 
L 0 0 
z
" style="fill: #ffffff"/>
  </g>
  <g id="axes_1">
   <g id="patch_2">
    <path d="M 48.560938 275.318125 
L 557.580937 275.318125 
L 557.580937 18.718125 
L 48.560938 18.718125 
z
" style="fill: #ffffff"/>
   </g>
   <g id="matplotlib.axis_1">
    <g id="xtick_1">
     <g id="line2d_1">
      <path d="M 71.69821 275.318125 
L 71.69821 18.718125 
" clip-path="url(#pe63940647a)" style="fill: none; stroke: #b0b0b0; stroke-opacity: 0.3; stroke-width: 0.8; stroke-linecap: square"/>
     </g>
     <g id="line2d_2">
      <defs>
       <path id="m5c592dd05c" d="M 0 0 
L 0 3.5 
" style="stroke: #000000; stroke-width: 0.8"/>
      </defs>
      <g>
       <use xlink:href="#m5c592dd05c" x="71.69821" y="275.318125" style="stroke: #000000; stroke-width: 0.8"/>
      </g>
     </g>
     <g id="text_1">
      <!-- 0.0 -->
      <g transform="translate(63.746648 289.916562)scale(0.1 -0.1)">
       <defs>
        <path id="DejaVuSans-30" d="M 2034 4250 
Q 1547 4250 1301 3770 
Q 1056 3291 1056 2328 
Q 1056 1369 1301 889 
Q 1547 409 2034 409 
Q 2525 409 2770 889 
Q 3016 1369 3016 2328 
Q 3016 3291 2770 3770 
Q 2525 4250 2034 4250 
z
M 2034 4750 
Q 2819 4750 3233 4129 
Q 3647 3509 3647 2328 
Q 3647 1150 3233 529 
Q 2819 -91 2034 -91 
Q 1250 -91 836 529 
Q 422 1150 422 2328 
Q 422 3509 836 4129 
Q 1250 4750 2034 4750 
z
" transform="scale(0.015625)"/>
        <path id="DejaVuSans-2e" d="M 684 794 
L 1344 794 
L 1344 0 
L 684 0 
L 684 794 
z
" transform="scale(0.015625)"/>
       </defs>
       <use xlink:href="#DejaVuSans-30"/>
       <use xlink:href="#DejaVuSans-2e" x="63.623047"/>
       <use xlink:href="#DejaVuSans-30" x="95.410156"/>
      </g>
     </g>
    </g>
    <g id="xtick_2">
     <g id="line2d_3">
      <path d="M 164.247301 275.318125 
L 164.247301 18.718125 
" clip-path="url(#pe63940647a)" style="fill: none; stroke: #b0b0b0; stroke-opacity: 0.3; stroke-width: 0.8; stroke-linecap: square"/>
     </g>
     <g id="line2d_4">
      <g>
       <use xlink:href="#m5c592dd05c" x="164.247301" y="275.318125" style="stroke: #000000; stroke-width: 0.8"/>
      </g>
     </g>
     <g id="text_2">
      <!-- 0.2 -->
      <g transform="translate(156.295739 289.916562)scale(0.1 -0.1)">
       <defs>
        <path id="DejaVuSans-32" d="M 1228 531 
L 3431 531 
L 3431 0 
L 469 0 
L 469 531 
Q 828 903 1448 1529 
Q 2069 2156 2228 2338 
Q 2531 2678 2651 2914 
Q 2772 3150 2772 3378 
Q 2772 3750 2511 3984 
Q 2250 4219 1831 4219 
Q 1534 4219 1204 4116 
Q 875 4013 500 3803 
L 500 4441 
Q 881 4594 1212 4672 
Q 1544 4750 1819 4750 
Q 2544 4750 2975 4387 
Q 3406 4025 3406 3419 
Q 3406 3131 3298 2873 
Q 3191 2616 2906 2266 
Q 2828 2175 2409 1742 
Q 1991 1309 1228 531 
z
" transform="scale(0.015625)"/>
       </defs>
       <use xlink:href="#DejaVuSans-30"/>
       <use xlink:href="#DejaVuSans-2e" x="63.623047"/>
       <use xlink:href="#DejaVuSans-32" x="95.410156"/>
      </g>
     </g>
    </g>
    <g id="xtick_3">
     <g id="line2d_5">
      <path d="M 256.796392 275.318125 
L 256.796392 18.718125 
" clip-path="url(#pe63940647a)" style="fill: none; stroke: #b0b0b0; stroke-opacity: 0.3; stroke-width: 0.8; stroke-linecap: square"/>
     </g>
     <g id="line2d_6">
      <g>
       <use xlink:href="#m5c592dd05c" x="256.796392" y="275.318125" style="stroke: #000000; stroke-width: 0.8"/>
      </g>
     </g>
     <g id="text_3">
      <!-- 0.4 -->
      <g transform="translate(248.84483 289.916562)scale(0.1 -0.1)">
       <defs>
        <path id="DejaVuSans-34" d="M 2419 4116 
L 825 1625 
L 2419 1625 
L 2419 4116 
z
M 2253 4666 
L 3047 4666 
L 3047 1625 
L 3713 1625 
L 3713 1100 
L 3047 1100 
L 3047 0 
L 2419 0 
L 2419 1100 
L 313 1100 
L 313 1709 
L 2253 4666 
z
" transform="scale(0.015625)"/>
       </defs>
       <use xlink:href="#DejaVuSans-30"/>
       <use xlink:href="#DejaVuSans-2e" x="63.623047"/>
       <use xlink:href="#DejaVuSans-34" x="95.410156"/>
      </g>
     </g>
    </g>
    <g id="xtick_4">
     <g id="line2d_7">
      <path d="M 349.345483 275.318125 
L 349.345483 18.718125 
" clip-path="url(#pe63940647a)" style="fill: none; stroke: #b0b0b0; stroke-opacity: 0.3; stroke-width: 0.8; stroke-linecap: square"/>
     </g>
     <g id="line2d_8">
      <g>
       <use xlink:href="#m5c592dd05c" x="349.345483" y="275.318125" style="stroke: #000000; stroke-width: 0.8"/>
      </g>
     </g>
     <g id="text_4">
      <!-- 0.6 -->
      <g transform="translate(341.39392 289.916562)scale(0.1 -0.1)">
       <defs>
        <path id="DejaVuSans-36" d="M 2113 2584 
Q 1688 2584 1439 2293 
Q 1191 2003 1191 1497 
Q 1191 994 1439 701 
Q 1688 409 2113 409 
Q 2538 409 2786 701 
Q 3034 994 3034 1497 
Q 3034 2003 2786 2293 
Q 2538 2584 2113 2584 
z
M 3366 4563 
L 3366 3988 
Q 3128 4100 2886 4159 
Q 2644 4219 2406 4219 
Q 1781 4219 1451 3797 
Q 1122 3375 1075 2522 
Q 1259 2794 1537 2939 
Q 1816 3084 2150 3084 
Q 2853 3084 3261 2657 
Q 3669 2231 3669 1497 
Q 3669 778 3244 343 
Q 2819 -91 2113 -91 
Q 1303 -91 875 529 
Q 447 1150 447 2328 
Q 447 3434 972 4092 
Q 1497 4750 2381 4750 
Q 2619 4750 2861 4703 
Q 3103 4656 3366 4563 
z
" transform="scale(0.015625)"/>
       </defs>
       <use xlink:href="#DejaVuSans-30"/>
       <use xlink:href="#DejaVuSans-2e" x="63.623047"/>
       <use xlink:href="#DejaVuSans-36" x="95.410156"/>
      </g>
     </g>
    </g>
    <g id="xtick_5">
     <g id="line2d_9">
      <path d="M 441.894574 275.318125 
L 441.894574 18.718125 
" clip-path="url(#pe63940647a)" style="fill: none; stroke: #b0b0b0; stroke-opacity: 0.3; stroke-width: 0.8; stroke-linecap: square"/>
     </g>
     <g id="line2d_10">
      <g>
       <use xlink:href="#m5c592dd05c" x="441.894574" y="275.318125" style="stroke: #000000; stroke-width: 0.8"/>
      </g>
     </g>
     <g id="text_5">
      <!-- 0.8 -->
      <g transform="translate(433.943011 289.916562)scale(0.1 -0.1)">
       <defs>
        <path id="DejaVuSans-38" d="M 2034 2216 
Q 1584 2216 1326 1975 
Q 1069 1734 1069 1313 
Q 1069 891 1326 650 
Q 1584 409 2034 409 
Q 2484 409 2743 651 
Q 3003 894 3003 1313 
Q 3003 1734 2745 1975 
Q 2488 2216 2034 2216 
z
M 1403 2484 
Q 997 2584 770 2862 
Q 544 3141 544 3541 
Q 544 4100 942 4425 
Q 1341 4750 2034 4750 
Q 2731 4750 3128 4425 
Q 3525 4100 3525 3541 
Q 3525 3141 3298 2862 
Q 3072 2584 2669 2484 
Q 3125 2378 3379 2068 
Q 3634 1759 3634 1313 
Q 3634 634 3220 271 
Q 2806 -91 2034 -91 
Q 1263 -91 848 271 
Q 434 634 434 1313 
Q 434 1759 690 2068 
Q 947 2378 1403 2484 
z
M 1172 3481 
Q 1172 3119 1398 2916 
Q 1625 2713 2034 2713 
Q 2441 2713 2670 2916 
Q 2900 3119 2900 3481 
Q 2900 3844 2670 4047 
Q 2441 4250 2034 4250 
Q 1625 4250 1398 4047 
Q 1172 3844 1172 3481 
z
" transform="scale(0.015625)"/>
       </defs>
       <use xlink:href="#DejaVuSans-30"/>
       <use xlink:href="#DejaVuSans-2e" x="63.623047"/>
       <use xlink:href="#DejaVuSans-38" x="95.410156"/>
      </g>
     </g>
    </g>
    <g id="xtick_6">
     <g id="line2d_11">
      <path d="M 534.443665 275.318125 
L 534.443665 18.718125 
" clip-path="url(#pe63940647a)" style="fill: none; stroke: #b0b0b0; stroke-opacity: 0.3; stroke-width: 0.8; stroke-linecap: square"/>
     </g>
     <g id="line2d_12">
      <g>
       <use xlink:href="#m5c592dd05c" x="534.443665" y="275.318125" style="stroke: #000000; stroke-width: 0.8"/>
      </g>
     </g>
     <g id="text_6">
      <!-- 1.0 -->
      <g transform="translate(526.492102 289.916562)scale(0.1 -0.1)">
       <defs>
        <path id="DejaVuSans-31" d="M 794 531 
L 1825 531 
L 1825 4091 
L 703 3866 
L 703 4441 
L 1819 4666 
L 2450 4666 
L 2450 531 
L 3481 531 
L 3481 0 
L 794 0 
L 794 531 
z
" transform="scale(0.015625)"/>
       </defs>
       <use xlink:href="#DejaVuSans-31"/>
       <use xlink:href="#DejaVuSans-2e" x="63.623047"/>
       <use xlink:href="#DejaVuSans-30" x="95.410156"/>
      </g>
     </g>
    </g>
    <g id="text_7">
     <!-- x -->
     <g transform="translate(300.111562 303.594688)scale(0.1 -0.1)">
      <defs>
       <path id="DejaVuSans-78" d="M 3513 3500 
L 2247 1797 
L 3578 0 
L 2900 0 
L 1881 1375 
L 863 0 
L 184 0 
L 1544 1831 
L 300 3500 
L 978 3500 
L 1906 2253 
L 2834 3500 
L 3513 3500 
z
" transform="scale(0.015625)"/>
      </defs>
      <use xlink:href="#DejaVuSans-78"/>
     </g>
    </g>
   </g>
   <g id="matplotlib.axis_2">
    <g id="ytick_1">
     <g id="line2d_13">
      <path d="M 48.560938 235.211376 
L 557.580937 235.211376 
" clip-path="url(#pe63940647a)" style="fill: none; stroke: #b0b0b0; stroke-opacity: 0.3; stroke-width: 0.8; stroke-linecap: square"/>
     </g>
     <g id="line2d_14">
      <defs>
       <path id="m827d2b9ced" d="M 0 0 
L -3.5 0 
" style="stroke: #000000; stroke-width: 0.8"/>
      </defs>
      <g>
       <use xlink:href="#m827d2b9ced" x="48.560938" y="235.211376" style="stroke: #000000; stroke-width: 0.8"/>
      </g>
     </g>
     <g id="text_8">
      <!-- −1.0 -->
      <g transform="translate(17.278125 239.010595)scale(0.1 -0.1)">
       <defs>
        <path id="DejaVuSans-2212" d="M 678 2272 
L 4684 2272 
L 4684 1741 
L 678 1741 
L 678 2272 
z
" transform="scale(0.015625)"/>
       </defs>
       <use xlink:href="#DejaVuSans-2212"/>
       <use xlink:href="#DejaVuSans-31" x="83.789062"/>
       <use xlink:href="#DejaVuSans-2e" x="147.412109"/>
       <use xlink:href="#DejaVuSans-30" x="179.199219"/>
      </g>
     </g>
    </g>
    <g id="ytick_2">
     <g id="line2d_15">
      <path d="M 48.560938 194.422277 
L 557.580937 194.422277 
" clip-path="url(#pe63940647a)" style="fill: none; stroke: #b0b0b0; stroke-opacity: 0.3; stroke-width: 0.8; stroke-linecap: square"/>
     </g>
     <g id="line2d_16">
      <g>
       <use xlink:href="#m827d2b9ced" x="48.560938" y="194.422277" style="stroke: #000000; stroke-width: 0.8"/>
      </g>
     </g>
     <g id="text_9">
      <!-- −0.5 -->
      <g transform="translate(17.278125 198.221496)scale(0.1 -0.1)">
       <defs>
        <path id="DejaVuSans-35" d="M 691 4666 
L 3169 4666 
L 3169 4134 
L 1269 4134 
L 1269 2991 
Q 1406 3038 1543 3061 
Q 1681 3084 1819 3084 
Q 2600 3084 3056 2656 
Q 3513 2228 3513 1497 
Q 3513 744 3044 326 
Q 2575 -91 1722 -91 
Q 1428 -91 1123 -41 
Q 819 9 494 109 
L 494 744 
Q 775 591 1075 516 
Q 1375 441 1709 441 
Q 2250 441 2565 725 
Q 2881 1009 2881 1497 
Q 2881 1984 2565 2268 
Q 2250 2553 1709 2553 
Q 1456 2553 1204 2497 
Q 953 2441 691 2322 
L 691 4666 
z
" transform="scale(0.015625)"/>
       </defs>
       <use xlink:href="#DejaVuSans-2212"/>
       <use xlink:href="#DejaVuSans-30" x="83.789062"/>
       <use xlink:href="#DejaVuSans-2e" x="147.412109"/>
       <use xlink:href="#DejaVuSans-35" x="179.199219"/>
      </g>
     </g>
    </g>
    <g id="ytick_3">
     <g id="line2d_17">
      <path d="M 48.560938 153.633177 
L 557.580937 153.633177 
" clip-path="url(#pe63940647a)" style="fill: none; stroke: #b0b0b0; stroke-opacity: 0.3; stroke-width: 0.8; stroke-linecap: square"/>
     </g>
     <g id="line2d_18">
      <g>
       <use xlink:href="#m827d2b9ced" x="48.560938" y="153.633177" style="stroke: #000000; stroke-width: 0.8"/>
      </g>
     </g>
     <g id="text_10">
      <!-- 0.0 -->
      <g transform="translate(25.657813 157.432396)scale(0.1 -0.1)">
       <use xlink:href="#DejaVuSans-30"/>
       <use xlink:href="#DejaVuSans-2e" x="63.623047"/>
       <use xlink:href="#DejaVuSans-30" x="95.410156"/>
      </g>
     </g>
    </g>
    <g id="ytick_4">
     <g id="line2d_19">
      <path d="M 48.560938 112.844078 
L 557.580937 112.844078 
" clip-path="url(#pe63940647a)" style="fill: none; stroke: #b0b0b0; stroke-opacity: 0.3; stroke-width: 0.8; stroke-linecap: square"/>
     </g>
     <g id="line2d_20">
      <g>
       <use xlink:href="#m827d2b9ced" x="48.560938" y="112.844078" style="stroke: #000000; stroke-width: 0.8"/>
      </g>
     </g>
     <g id="text_11">
      <!-- 0.5 -->
      <g transform="translate(25.657813 116.643297)scale(0.1 -0.1)">
       <use xlink:href="#DejaVuSans-30"/>
       <use xlink:href="#DejaVuSans-2e" x="63.623047"/>
       <use xlink:href="#DejaVuSans-35" x="95.410156"/>
      </g>
     </g>
    </g>
    <g id="ytick_5">
     <g id="line2d_21">
      <path d="M 48.560938 72.054979 
L 557.580937 72.054979 
" clip-path="url(#pe63940647a)" style="fill: none; stroke: #b0b0b0; stroke-opacity: 0.3; stroke-width: 0.8; stroke-linecap: square"/>
     </g>
     <g id="line2d_22">
      <g>
       <use xlink:href="#m827d2b9ced" x="48.560938" y="72.054979" style="stroke: #000000; stroke-width: 0.8"/>
      </g>
     </g>
     <g id="text_12">
      <!-- 1.0 -->
      <g transform="translate(25.657813 75.854197)scale(0.1 -0.1)">
       <use xlink:href="#DejaVuSans-31"/>
       <use xlink:href="#DejaVuSans-2e" x="63.623047"/>
       <use xlink:href="#DejaVuSans-30" x="95.410156"/>
      </g>
     </g>
    </g>
    <g id="ytick_6">
     <g id="line2d_23">
      <path d="M 48.560938 31.265879 
L 557.580937 31.265879 
" clip-path="url(#pe63940647a)" style="fill: none; stroke: #b0b0b0; stroke-opacity: 0.3; stroke-width: 0.8; stroke-linecap: square"/>
     </g>
     <g id="line2d_24">
      <g>
       <use xlink:href="#m827d2b9ced" x="48.560938" y="31.265879" style="stroke: #000000; stroke-width: 0.8"/>
      </g>
     </g>
     <g id="text_13">
      <!-- 1.5 -->
      <g transform="translate(25.657813 35.065098)scale(0.1 -0.1)">
       <use xlink:href="#DejaVuSans-31"/>
       <use xlink:href="#DejaVuSans-2e" x="63.623047"/>
       <use xlink:href="#DejaVuSans-35" x="95.410156"/>
      </g>
     </g>
    </g>
    <g id="text_14">
     <!-- u -->
     <g transform="translate(11.198438 150.186875)rotate(-90)scale(0.1 -0.1)">
      <defs>
       <path id="DejaVuSans-75" d="M 544 1381 
L 544 3500 
L 1119 3500 
L 1119 1403 
Q 1119 906 1312 657 
Q 1506 409 1894 409 
Q 2359 409 2629 706 
Q 2900 1003 2900 1516 
L 2900 3500 
L 3475 3500 
L 3475 0 
L 2900 0 
L 2900 538 
Q 2691 219 2414 64 
Q 2138 -91 1772 -91 
Q 1169 -91 856 284 
Q 544 659 544 1381 
z
M 1991 3584 
L 1991 3584 
z
" transform="scale(0.015625)"/>
      </defs>
      <use xlink:href="#DejaVuSans-75"/>
     </g>
    </g>
   </g>
   <g id="line2d_25">
    <path d="M 71.69821 218.149265 
L 82.629205 230.929799 
L 86.27287 234.919285 
L 89.916535 238.689625 
L 93.5602 242.108455 
L 97.203865 245.137385 
L 104.491195 250.379542 
L 111.778525 255.497921 
L 115.42219 257.816508 
L 119.065855 259.867378 
L 122.70952 261.49681 
L 126.353185 262.71172 
L 129.99685 263.462558 
L 133.640515 263.654489 
L 137.28418 263.247833 
L 140.927845 262.199462 
L 144.57151 260.505505 
L 148.215175 258.179878 
L 151.85884 255.425082 
L 155.502505 252.279871 
L 159.14617 248.695923 
L 162.789835 244.619915 
L 166.4335 240.245294 
L 170.077165 235.564098 
L 173.72083 230.543065 
L 177.364495 225.262202 
L 181.00816 219.702445 
L 188.29549 207.931816 
L 199.226485 189.928887 
L 202.87015 184.553547 
L 206.513815 179.846565 
L 210.15748 175.911446 
L 213.801145 172.933064 
L 217.44481 170.850524 
L 221.088475 169.464816 
L 224.73214 168.619493 
L 228.375805 168.27717 
L 232.01947 168.242452 
L 235.663135 168.468534 
L 239.3068 168.903333 
L 242.950465 169.56261 
L 246.59413 170.505268 
L 253.88146 172.860221 
L 257.525125 173.845155 
L 261.16879 174.485523 
L 264.812455 174.779268 
L 268.45612 174.574251 
L 272.099785 173.869616 
L 275.74345 172.504654 
L 279.387115 170.485546 
L 283.03078 167.890107 
L 286.674445 164.828608 
L 290.31811 161.436643 
L 293.961775 157.792635 
L 297.60544 153.960402 
L 301.249105 149.928334 
L 304.89277 145.73041 
L 308.536435 141.330018 
L 312.1801 136.698365 
L 315.823765 131.881438 
L 319.46743 126.835301 
L 326.75476 116.166357 
L 334.04209 104.934634 
L 344.973085 87.498889 
L 355.90408 70.707966 
L 363.19141 60.111057 
L 366.835075 55.137346 
L 370.47874 50.680657 
L 374.122405 46.83225 
L 377.76607 43.384343 
L 381.409735 40.301498 
L 385.0534 37.67086 
L 388.697065 35.468418 
L 392.34073 33.647619 
L 395.984395 32.287361 
L 399.62806 31.347656 
L 403.271725 30.692899 
L 406.91539 30.381771 
L 410.559055 30.595291 
L 414.20272 31.323742 
L 417.846385 32.452062 
L 421.49005 34.001147 
L 425.133715 36.110163 
L 428.77738 38.734742 
L 432.421045 41.86733 
L 436.06471 45.594448 
L 439.708375 49.950173 
L 443.35204 54.976622 
L 446.995705 60.691992 
L 450.63937 67.010606 
L 454.283035 73.985187 
L 457.9267 81.615916 
L 465.21403 97.965096 
L 476.145025 122.677725 
L 483.432355 138.100608 
L 487.07602 145.36551 
L 490.719685 152.264619 
L 494.36335 158.859394 
L 498.007015 165.18695 
L 501.65068 171.236253 
L 505.294345 176.88134 
L 508.93801 182.118778 
L 512.581675 187.0992 
L 519.869005 196.399583 
L 530.8 209.625594 
L 534.443665 213.941067 
L 534.443665 213.941067 
" clip-path="url(#pe63940647a)" style="fill: none; stroke: #1f77b4; stroke-opacity: 0.7; stroke-linecap: square"/>
   </g>
   <g id="line2d_26">
    <path d="M 71.69821 218.149265 
L 82.629205 230.929799 
L 86.27287 234.919285 
L 89.916535 238.689625 
L 93.5602 242.108455 
L 97.203865 245.137385 
L 104.491195 250.379542 
L 111.778525 255.497921 
L 115.42219 257.816508 
L 119.065855 259.867378 
L 122.70952 261.49681 
L 126.353185 262.71172 
L 129.99685 263.462558 
L 133.640515 263.654489 
L 137.28418 263.247833 
L 140.927845 262.199462 
L 144.57151 260.505505 
L 148.215175 258.179878 
L 151.85884 255.425082 
L 155.502505 252.279871 
L 159.14617 248.695923 
L 162.789835 244.619915 
L 166.4335 240.245294 
L 170.077165 235.564098 
L 173.72083 230.543065 
L 177.364495 225.262202 
L 181.00816 219.702445 
L 188.29549 207.931816 
L 199.226485 189.928887 
L 202.87015 184.553547 
L 206.513815 179.846565 
L 210.15748 175.911446 
L 213.801145 172.933064 
L 217.44481 170.850524 
L 221.088475 169.464816 
L 224.73214 168.619493 
L 228.375805 168.27717 
L 232.01947 168.242452 
L 235.663135 168.468534 
L 239.3068 168.903333 
L 242.950465 169.56261 
L 246.59413 170.505268 
L 253.88146 172.860221 
L 257.525125 173.845155 
L 261.16879 174.485523 
L 264.812455 174.779268 
L 268.45612 174.574251 
L 272.099785 173.869616 
L 275.74345 172.504654 
L 279.387115 170.485546 
L 283.03078 167.890107 
L 286.674445 164.828608 
L 290.31811 161.436643 
L 293.961775 157.792635 
L 297.60544 153.960402 
L 301.249105 149.928334 
L 304.89277 145.73041 
L 308.536435 141.330018 
L 312.1801 136.698365 
L 315.823765 131.881438 
L 319.46743 126.835301 
L 326.75476 116.166357 
L 334.04209 104.934634 
L 344.973085 87.498889 
L 355.90408 70.707966 
L 363.19141 60.111057 
L 366.835075 55.137346 
L 370.47874 50.680657 
L 374.122405 46.83225 
L 377.76607 43.384343 
L 381.409735 40.301498 
L 385.0534 37.67086 
L 388.697065 35.468418 
L 392.34073 33.647619 
L 395.984395 32.287361 
L 399.62806 31.347656 
L 403.271725 30.692899 
L 406.91539 30.381771 
L 410.559055 30.595291 
L 414.20272 31.323742 
L 417.846385 32.452062 
L 421.49005 34.001147 
L 425.133715 36.110163 
L 428.77738 38.734742 
L 432.421045 41.86733 
L 436.06471 45.594448 
L 439.708375 49.950173 
L 443.35204 54.976622 
L 446.995705 60.691992 
L 450.63937 67.010606 
L 454.283035 73.985187 
L 457.9267 81.615916 
L 465.21403 97.965096 
L 476.145025 122.677725 
L 483.432355 138.100608 
L 487.07602 145.36551 
L 490.719685 152.264619 
L 494.36335 158.859394 
L 498.007015 165.18695 
L 501.65068 171.236253 
L 505.294345 176.88134 
L 508.93801 182.118778 
L 512.581675 187.0992 
L 519.869005 196.399583 
L 530.8 209.625594 
L 534.443665 213.941067 
L 534.443665 213.941067 
" clip-path="url(#pe63940647a)" style="fill: none; stroke: #ff7f0e; stroke-width: 2; stroke-linecap: square"/>
   </g>
   <g id="line2d_27">
    <path d="M 71.69821 218.14927 
L 82.629205 230.929784 
L 86.27287 234.919275 
L 89.916535 238.689615 
L 93.5602 242.108455 
L 97.203865 245.137375 
L 104.491195 250.379523 
L 111.778525 255.497912 
L 115.42219 257.816508 
L 119.065855 259.867378 
L 122.70952 261.496801 
L 126.353185 262.71171 
L 129.99685 263.462558 
L 133.640515 263.654479 
L 137.28418 263.247823 
L 140.927845 262.199442 
L 144.57151 260.505485 
L 148.215175 258.179858 
L 151.85884 255.425072 
L 155.502505 252.279871 
L 159.14617 248.695932 
L 162.789835 244.619885 
L 166.4335 240.245294 
L 170.077165 235.564098 
L 173.72083 230.543074 
L 177.364495 225.262202 
L 181.00816 219.70244 
L 188.29549 207.931816 
L 199.226485 189.928884 
L 202.87015 184.553542 
L 206.513815 179.846565 
L 210.15748 175.911448 
L 213.801145 172.93307 
L 217.44481 170.850517 
L 221.088475 169.464824 
L 224.73214 168.619474 
L 228.375805 168.277187 
L 232.01947 168.242457 
L 235.663135 168.468528 
L 239.3068 168.903331 
L 242.950465 169.562622 
L 246.59413 170.505269 
L 253.88146 172.860216 
L 257.525125 173.845157 
L 261.16879 174.485526 
L 264.812455 174.779266 
L 268.45612 174.574256 
L 272.099785 173.869614 
L 275.74345 172.504652 
L 279.387115 170.485555 
L 283.03078 167.890098 
L 286.674445 164.828621 
L 290.31811 161.436654 
L 293.961775 157.792632 
L 297.60544 153.960405 
L 301.249105 149.928344 
L 304.89277 145.730412 
L 308.536435 141.330029 
L 312.1801 136.69837 
L 315.823765 131.88145 
L 319.46743 126.835305 
L 326.75476 116.166357 
L 334.04209 104.934634 
L 344.973085 87.498894 
L 355.90408 70.707976 
L 363.19141 60.111057 
L 366.835075 55.137355 
L 370.47874 50.680677 
L 374.122405 46.83227 
L 377.76607 43.384372 
L 381.409735 40.301527 
L 385.0534 37.670869 
L 388.697065 35.468437 
L 392.34073 33.647619 
L 395.984395 32.287381 
L 399.62806 31.347656 
L 403.271725 30.692909 
L 406.91539 30.381761 
L 410.559055 30.595291 
L 414.20272 31.323752 
L 417.846385 32.452071 
L 421.49005 34.001147 
L 425.133715 36.110163 
L 428.77738 38.734752 
L 432.421045 41.86734 
L 436.06471 45.594458 
L 439.708375 49.950173 
L 443.35204 54.976622 
L 446.995705 60.691983 
L 450.63937 67.010606 
L 454.283035 73.985182 
L 457.9267 81.615921 
L 465.21403 97.965091 
L 476.145025 122.677715 
L 483.432355 138.100597 
L 487.07602 145.365508 
L 490.719685 152.264615 
L 494.36335 158.859387 
L 498.007015 165.186945 
L 501.65068 171.236248 
L 505.294345 176.88133 
L 508.93801 182.118783 
L 512.581675 187.099185 
L 519.869005 196.399568 
L 530.8 209.625589 
L 534.443665 213.941052 
L 534.443665 213.941052 
" clip-path="url(#pe63940647a)" style="fill: none; stroke-dasharray: 7.4,3.2; stroke-dashoffset: 0; stroke: #2ca02c; stroke-width: 2"/>
   </g>
   <g id="patch_3">
    <path d="M 48.560938 275.318125 
L 48.560938 18.718125 
" style="fill: none; stroke: #000000; stroke-width: 0.8; stroke-linejoin: miter; stroke-linecap: square"/>
   </g>
   <g id="patch_4">
    <path d="M 557.580937 275.318125 
L 557.580937 18.718125 
" style="fill: none; stroke: #000000; stroke-width: 0.8; stroke-linejoin: miter; stroke-linecap: square"/>
   </g>
   <g id="patch_5">
    <path d="M 48.560938 275.318125 
L 557.580937 275.318125 
" style="fill: none; stroke: #000000; stroke-width: 0.8; stroke-linejoin: miter; stroke-linecap: square"/>
   </g>
   <g id="patch_6">
    <path d="M 48.560938 18.718125 
L 557.580937 18.718125 
" style="fill: none; stroke: #000000; stroke-width: 0.8; stroke-linejoin: miter; stroke-linecap: square"/>
   </g>
   <g id="text_15">
    <!-- sample=0, t_idx=0: relL2=1.4e-07  RMSE=1.26e-07 -->
    <g transform="translate(145.893437 12.718125)scale(0.12 -0.12)">
     <defs>
      <path id="DejaVuSans-73" d="M 2834 3397 
L 2834 2853 
Q 2591 2978 2328 3040 
Q 2066 3103 1784 3103 
Q 1356 3103 1142 2972 
Q 928 2841 928 2578 
Q 928 2378 1081 2264 
Q 1234 2150 1697 2047 
L 1894 2003 
Q 2506 1872 2764 1633 
Q 3022 1394 3022 966 
Q 3022 478 2636 193 
Q 2250 -91 1575 -91 
Q 1294 -91 989 -36 
Q 684 19 347 128 
L 347 722 
Q 666 556 975 473 
Q 1284 391 1588 391 
Q 1994 391 2212 530 
Q 2431 669 2431 922 
Q 2431 1156 2273 1281 
Q 2116 1406 1581 1522 
L 1381 1569 
Q 847 1681 609 1914 
Q 372 2147 372 2553 
Q 372 3047 722 3315 
Q 1072 3584 1716 3584 
Q 2034 3584 2315 3537 
Q 2597 3491 2834 3397 
z
" transform="scale(0.015625)"/>
      <path id="DejaVuSans-61" d="M 2194 1759 
Q 1497 1759 1228 1600 
Q 959 1441 959 1056 
Q 959 750 1161 570 
Q 1363 391 1709 391 
Q 2188 391 2477 730 
Q 2766 1069 2766 1631 
L 2766 1759 
L 2194 1759 
z
M 3341 1997 
L 3341 0 
L 2766 0 
L 2766 531 
Q 2569 213 2275 61 
Q 1981 -91 1556 -91 
Q 1019 -91 701 211 
Q 384 513 384 1019 
Q 384 1609 779 1909 
Q 1175 2209 1959 2209 
L 2766 2209 
L 2766 2266 
Q 2766 2663 2505 2880 
Q 2244 3097 1772 3097 
Q 1472 3097 1187 3025 
Q 903 2953 641 2809 
L 641 3341 
Q 956 3463 1253 3523 
Q 1550 3584 1831 3584 
Q 2591 3584 2966 3190 
Q 3341 2797 3341 1997 
z
" transform="scale(0.015625)"/>
      <path id="DejaVuSans-6d" d="M 3328 2828 
Q 3544 3216 3844 3400 
Q 4144 3584 4550 3584 
Q 5097 3584 5394 3201 
Q 5691 2819 5691 2113 
L 5691 0 
L 5113 0 
L 5113 2094 
Q 5113 2597 4934 2840 
Q 4756 3084 4391 3084 
Q 3944 3084 3684 2787 
Q 3425 2491 3425 1978 
L 3425 0 
L 2847 0 
L 2847 2094 
Q 2847 2600 2669 2842 
Q 2491 3084 2119 3084 
Q 1678 3084 1418 2786 
Q 1159 2488 1159 1978 
L 1159 0 
L 581 0 
L 581 3500 
L 1159 3500 
L 1159 2956 
Q 1356 3278 1631 3431 
Q 1906 3584 2284 3584 
Q 2666 3584 2933 3390 
Q 3200 3197 3328 2828 
z
" transform="scale(0.015625)"/>
      <path id="DejaVuSans-70" d="M 1159 525 
L 1159 -1331 
L 581 -1331 
L 581 3500 
L 1159 3500 
L 1159 2969 
Q 1341 3281 1617 3432 
Q 1894 3584 2278 3584 
Q 2916 3584 3314 3078 
Q 3713 2572 3713 1747 
Q 3713 922 3314 415 
Q 2916 -91 2278 -91 
Q 1894 -91 1617 61 
Q 1341 213 1159 525 
z
M 3116 1747 
Q 3116 2381 2855 2742 
Q 2594 3103 2138 3103 
Q 1681 3103 1420 2742 
Q 1159 2381 1159 1747 
Q 1159 1113 1420 752 
Q 1681 391 2138 391 
Q 2594 391 2855 752 
Q 3116 1113 3116 1747 
z
" transform="scale(0.015625)"/>
      <path id="DejaVuSans-6c" d="M 603 4863 
L 1178 4863 
L 1178 0 
L 603 0 
L 603 4863 
z
" transform="scale(0.015625)"/>
      <path id="DejaVuSans-65" d="M 3597 1894 
L 3597 1613 
L 953 1613 
Q 991 1019 1311 708 
Q 1631 397 2203 397 
Q 2534 397 2845 478 
Q 3156 559 3463 722 
L 3463 178 
Q 3153 47 2828 -22 
Q 2503 -91 2169 -91 
Q 1331 -91 842 396 
Q 353 884 353 1716 
Q 353 2575 817 3079 
Q 1281 3584 2069 3584 
Q 2775 3584 3186 3129 
Q 3597 2675 3597 1894 
z
M 3022 2063 
Q 3016 2534 2758 2815 
Q 2500 3097 2075 3097 
Q 1594 3097 1305 2825 
Q 1016 2553 972 2059 
L 3022 2063 
z
" transform="scale(0.015625)"/>
      <path id="DejaVuSans-3d" d="M 678 2906 
L 4684 2906 
L 4684 2381 
L 678 2381 
L 678 2906 
z
M 678 1631 
L 4684 1631 
L 4684 1100 
L 678 1100 
L 678 1631 
z
" transform="scale(0.015625)"/>
      <path id="DejaVuSans-2c" d="M 750 794 
L 1409 794 
L 1409 256 
L 897 -744 
L 494 -744 
L 750 256 
L 750 794 
z
" transform="scale(0.015625)"/>
      <path id="DejaVuSans-20" transform="scale(0.015625)"/>
      <path id="DejaVuSans-74" d="M 1172 4494 
L 1172 3500 
L 2356 3500 
L 2356 3053 
L 1172 3053 
L 1172 1153 
Q 1172 725 1289 603 
Q 1406 481 1766 481 
L 2356 481 
L 2356 0 
L 1766 0 
Q 1100 0 847 248 
Q 594 497 594 1153 
L 594 3053 
L 172 3053 
L 172 3500 
L 594 3500 
L 594 4494 
L 1172 4494 
z
" transform="scale(0.015625)"/>
      <path id="DejaVuSans-5f" d="M 3263 -1063 
L 3263 -1509 
L -63 -1509 
L -63 -1063 
L 3263 -1063 
z
" transform="scale(0.015625)"/>
      <path id="DejaVuSans-69" d="M 603 3500 
L 1178 3500 
L 1178 0 
L 603 0 
L 603 3500 
z
M 603 4863 
L 1178 4863 
L 1178 4134 
L 603 4134 
L 603 4863 
z
" transform="scale(0.015625)"/>
      <path id="DejaVuSans-64" d="M 2906 2969 
L 2906 4863 
L 3481 4863 
L 3481 0 
L 2906 0 
L 2906 525 
Q 2725 213 2448 61 
Q 2172 -91 1784 -91 
Q 1150 -91 751 415 
Q 353 922 353 1747 
Q 353 2572 751 3078 
Q 1150 3584 1784 3584 
Q 2172 3584 2448 3432 
Q 2725 3281 2906 2969 
z
M 947 1747 
Q 947 1113 1208 752 
Q 1469 391 1925 391 
Q 2381 391 2643 752 
Q 2906 1113 2906 1747 
Q 2906 2381 2643 2742 
Q 2381 3103 1925 3103 
Q 1469 3103 1208 2742 
Q 947 2381 947 1747 
z
" transform="scale(0.015625)"/>
      <path id="DejaVuSans-3a" d="M 750 794 
L 1409 794 
L 1409 0 
L 750 0 
L 750 794 
z
M 750 3309 
L 1409 3309 
L 1409 2516 
L 750 2516 
L 750 3309 
z
" transform="scale(0.015625)"/>
      <path id="DejaVuSans-72" d="M 2631 2963 
Q 2534 3019 2420 3045 
Q 2306 3072 2169 3072 
Q 1681 3072 1420 2755 
Q 1159 2438 1159 1844 
L 1159 0 
L 581 0 
L 581 3500 
L 1159 3500 
L 1159 2956 
Q 1341 3275 1631 3429 
Q 1922 3584 2338 3584 
Q 2397 3584 2469 3576 
Q 2541 3569 2628 3553 
L 2631 2963 
z
" transform="scale(0.015625)"/>
      <path id="DejaVuSans-4c" d="M 628 4666 
L 1259 4666 
L 1259 531 
L 3531 531 
L 3531 0 
L 628 0 
L 628 4666 
z
" transform="scale(0.015625)"/>
      <path id="DejaVuSans-2d" d="M 313 2009 
L 1997 2009 
L 1997 1497 
L 313 1497 
L 313 2009 
z
" transform="scale(0.015625)"/>
      <path id="DejaVuSans-37" d="M 525 4666 
L 3525 4666 
L 3525 4397 
L 1831 0 
L 1172 0 
L 2766 4134 
L 525 4134 
L 525 4666 
z
" transform="scale(0.015625)"/>
      <path id="DejaVuSans-52" d="M 2841 2188 
Q 3044 2119 3236 1894 
Q 3428 1669 3622 1275 
L 4263 0 
L 3584 0 
L 2988 1197 
Q 2756 1666 2539 1819 
Q 2322 1972 1947 1972 
L 1259 1972 
L 1259 0 
L 628 0 
L 628 4666 
L 2053 4666 
Q 2853 4666 3247 4331 
Q 3641 3997 3641 3322 
Q 3641 2881 3436 2590 
Q 3231 2300 2841 2188 
z
M 1259 4147 
L 1259 2491 
L 2053 2491 
Q 2509 2491 2742 2702 
Q 2975 2913 2975 3322 
Q 2975 3731 2742 3939 
Q 2509 4147 2053 4147 
L 1259 4147 
z
" transform="scale(0.015625)"/>
      <path id="DejaVuSans-4d" d="M 628 4666 
L 1569 4666 
L 2759 1491 
L 3956 4666 
L 4897 4666 
L 4897 0 
L 4281 0 
L 4281 4097 
L 3078 897 
L 2444 897 
L 1241 4097 
L 1241 0 
L 628 0 
L 628 4666 
z
" transform="scale(0.015625)"/>
      <path id="DejaVuSans-53" d="M 3425 4513 
L 3425 3897 
Q 3066 4069 2747 4153 
Q 2428 4238 2131 4238 
Q 1616 4238 1336 4038 
Q 1056 3838 1056 3469 
Q 1056 3159 1242 3001 
Q 1428 2844 1947 2747 
L 2328 2669 
Q 3034 2534 3370 2195 
Q 3706 1856 3706 1288 
Q 3706 609 3251 259 
Q 2797 -91 1919 -91 
Q 1588 -91 1214 -16 
Q 841 59 441 206 
L 441 856 
Q 825 641 1194 531 
Q 1563 422 1919 422 
Q 2459 422 2753 634 
Q 3047 847 3047 1241 
Q 3047 1584 2836 1778 
Q 2625 1972 2144 2069 
L 1759 2144 
Q 1053 2284 737 2584 
Q 422 2884 422 3419 
Q 422 4038 858 4394 
Q 1294 4750 2059 4750 
Q 2388 4750 2728 4690 
Q 3069 4631 3425 4513 
z
" transform="scale(0.015625)"/>
      <path id="DejaVuSans-45" d="M 628 4666 
L 3578 4666 
L 3578 4134 
L 1259 4134 
L 1259 2753 
L 3481 2753 
L 3481 2222 
L 1259 2222 
L 1259 531 
L 3634 531 
L 3634 0 
L 628 0 
L 628 4666 
z
" transform="scale(0.015625)"/>
     </defs>
     <use xlink:href="#DejaVuSans-73"/>
     <use xlink:href="#DejaVuSans-61" x="52.099609"/>
     <use xlink:href="#DejaVuSans-6d" x="113.378906"/>
     <use xlink:href="#DejaVuSans-70" x="210.791016"/>
     <use xlink:href="#DejaVuSans-6c" x="274.267578"/>
     <use xlink:href="#DejaVuSans-65" x="302.050781"/>
     <use xlink:href="#DejaVuSans-3d" x="363.574219"/>
     <use xlink:href="#DejaVuSans-30" x="447.363281"/>
     <use xlink:href="#DejaVuSans-2c" x="510.986328"/>
     <use xlink:href="#DejaVuSans-20" x="542.773438"/>
     <use xlink:href="#DejaVuSans-74" x="574.560547"/>
     <use xlink:href="#DejaVuSans-5f" x="613.769531"/>
     <use xlink:href="#DejaVuSans-69" x="663.769531"/>
     <use xlink:href="#DejaVuSans-64" x="691.552734"/>
     <use xlink:href="#DejaVuSans-78" x="755.029297"/>
     <use xlink:href="#DejaVuSans-3d" x="814.208984"/>
     <use xlink:href="#DejaVuSans-30" x="897.998047"/>
     <use xlink:href="#DejaVuSans-3a" x="961.621094"/>
     <use xlink:href="#DejaVuSans-20" x="995.3125"/>
     <use xlink:href="#DejaVuSans-72" x="1027.099609"/>
     <use xlink:href="#DejaVuSans-65" x="1065.962891"/>
     <use xlink:href="#DejaVuSans-6c" x="1127.486328"/>
     <use xlink:href="#DejaVuSans-4c" x="1155.269531"/>
     <use xlink:href="#DejaVuSans-32" x="1210.982422"/>
     <use xlink:href="#DejaVuSans-3d" x="1274.605469"/>
     <use xlink:href="#DejaVuSans-31" x="1358.394531"/>
     <use xlink:href="#DejaVuSans-2e" x="1422.017578"/>
     <use xlink:href="#DejaVuSans-34" x="1453.804688"/>
     <use xlink:href="#DejaVuSans-65" x="1517.427734"/>
     <use xlink:href="#DejaVuSans-2d" x="1578.951172"/>
     <use xlink:href="#DejaVuSans-30" x="1615.035156"/>
     <use xlink:href="#DejaVuSans-37" x="1678.658203"/>
     <use xlink:href="#DejaVuSans-20" x="1742.28125"/>
     <use xlink:href="#DejaVuSans-20" x="1774.068359"/>
     <use xlink:href="#DejaVuSans-52" x="1805.855469"/>
     <use xlink:href="#DejaVuSans-4d" x="1875.337891"/>
     <use xlink:href="#DejaVuSans-53" x="1961.617188"/>
     <use xlink:href="#DejaVuSans-45" x="2025.09375"/>
     <use xlink:href="#DejaVuSans-3d" x="2088.277344"/>
     <use xlink:href="#DejaVuSans-31" x="2172.066406"/>
     <use xlink:href="#DejaVuSans-2e" x="2235.689453"/>
     <use xlink:href="#DejaVuSans-32" x="2267.476562"/>
     <use xlink:href="#DejaVuSans-36" x="2331.099609"/>
     <use xlink:href="#DejaVuSans-65" x="2394.722656"/>
     <use xlink:href="#DejaVuSans-2d" x="2456.246094"/>
     <use xlink:href="#DejaVuSans-30" x="2492.330078"/>
     <use xlink:href="#DejaVuSans-37" x="2555.953125"/>
    </g>
   </g>
   <g id="legend_1">
    <g id="patch_7">
     <path d="M 469.177812 70.7525 
L 550.580937 70.7525 
Q 552.580937 70.7525 552.580937 68.7525 
L 552.580937 25.718125 
Q 552.580937 23.718125 550.580937 23.718125 
L 469.177812 23.718125 
Q 467.177812 23.718125 467.177812 25.718125 
L 467.177812 68.7525 
Q 467.177812 70.7525 469.177812 70.7525 
z
" style="fill: #ffffff; opacity: 0.8; stroke: #cccccc; stroke-linejoin: miter"/>
    </g>
    <g id="line2d_28">
     <path d="M 471.177812 31.816562 
L 481.177812 31.816562 
L 491.177812 31.816562 
" style="fill: none; stroke: #1f77b4; stroke-opacity: 0.7; stroke-linecap: square"/>
    </g>
    <g id="text_16">
     <!-- input (u0) -->
     <g transform="translate(499.177812 35.316562)scale(0.1 -0.1)">
      <defs>
       <path id="DejaVuSans-6e" d="M 3513 2113 
L 3513 0 
L 2938 0 
L 2938 2094 
Q 2938 2591 2744 2837 
Q 2550 3084 2163 3084 
Q 1697 3084 1428 2787 
Q 1159 2491 1159 1978 
L 1159 0 
L 581 0 
L 581 3500 
L 1159 3500 
L 1159 2956 
Q 1366 3272 1645 3428 
Q 1925 3584 2291 3584 
Q 2894 3584 3203 3211 
Q 3513 2838 3513 2113 
z
" transform="scale(0.015625)"/>
       <path id="DejaVuSans-28" d="M 1984 4856 
Q 1566 4138 1362 3434 
Q 1159 2731 1159 2009 
Q 1159 1288 1364 580 
Q 1569 -128 1984 -844 
L 1484 -844 
Q 1016 -109 783 600 
Q 550 1309 550 2009 
Q 550 2706 781 3412 
Q 1013 4119 1484 4856 
L 1984 4856 
z
" transform="scale(0.015625)"/>
       <path id="DejaVuSans-29" d="M 513 4856 
L 1013 4856 
Q 1481 4119 1714 3412 
Q 1947 2706 1947 2009 
Q 1947 1309 1714 600 
Q 1481 -109 1013 -844 
L 513 -844 
Q 928 -128 1133 580 
Q 1338 1288 1338 2009 
Q 1338 2731 1133 3434 
Q 928 4138 513 4856 
z
" transform="scale(0.015625)"/>
      </defs>
      <use xlink:href="#DejaVuSans-69"/>
      <use xlink:href="#DejaVuSans-6e" x="27.783203"/>
      <use xlink:href="#DejaVuSans-70" x="91.162109"/>
      <use xlink:href="#DejaVuSans-75" x="154.638672"/>
      <use xlink:href="#DejaVuSans-74" x="218.017578"/>
      <use xlink:href="#DejaVuSans-20" x="257.226562"/>
      <use xlink:href="#DejaVuSans-28" x="289.013672"/>
      <use xlink:href="#DejaVuSans-75" x="328.027344"/>
      <use xlink:href="#DejaVuSans-30" x="391.40625"/>
      <use xlink:href="#DejaVuSans-29" x="455.029297"/>
     </g>
    </g>
    <g id="line2d_29">
     <path d="M 471.177812 46.494687 
L 481.177812 46.494687 
L 491.177812 46.494687 
" style="fill: none; stroke: #ff7f0e; stroke-width: 2; stroke-linecap: square"/>
    </g>
    <g id="text_17">
     <!-- GT -->
     <g transform="translate(499.177812 49.994687)scale(0.1 -0.1)">
      <defs>
       <path id="DejaVuSans-47" d="M 3809 666 
L 3809 1919 
L 2778 1919 
L 2778 2438 
L 4434 2438 
L 4434 434 
Q 4069 175 3628 42 
Q 3188 -91 2688 -91 
Q 1594 -91 976 548 
Q 359 1188 359 2328 
Q 359 3472 976 4111 
Q 1594 4750 2688 4750 
Q 3144 4750 3555 4637 
Q 3966 4525 4313 4306 
L 4313 3634 
Q 3963 3931 3569 4081 
Q 3175 4231 2741 4231 
Q 1884 4231 1454 3753 
Q 1025 3275 1025 2328 
Q 1025 1384 1454 906 
Q 1884 428 2741 428 
Q 3075 428 3337 486 
Q 3600 544 3809 666 
z
" transform="scale(0.015625)"/>
       <path id="DejaVuSans-54" d="M -19 4666 
L 3928 4666 
L 3928 4134 
L 2272 4134 
L 2272 0 
L 1638 0 
L 1638 4134 
L -19 4134 
L -19 4666 
z
" transform="scale(0.015625)"/>
      </defs>
      <use xlink:href="#DejaVuSans-47"/>
      <use xlink:href="#DejaVuSans-54" x="73.865234"/>
     </g>
    </g>
    <g id="line2d_30">
     <path d="M 471.177812 61.172812 
L 481.177812 61.172812 
L 491.177812 61.172812 
" style="fill: none; stroke-dasharray: 7.4,3.2; stroke-dashoffset: 0; stroke: #2ca02c; stroke-width: 2"/>
    </g>
    <g id="text_18">
     <!-- Pred -->
     <g transform="translate(499.177812 64.672812)scale(0.1 -0.1)">
      <defs>
       <path id="DejaVuSans-50" d="M 1259 4147 
L 1259 2394 
L 2053 2394 
Q 2494 2394 2734 2622 
Q 2975 2850 2975 3272 
Q 2975 3691 2734 3919 
Q 2494 4147 2053 4147 
L 1259 4147 
z
M 628 4666 
L 2053 4666 
Q 2838 4666 3239 4311 
Q 3641 3956 3641 3272 
Q 3641 2581 3239 2228 
Q 2838 1875 2053 1875 
L 1259 1875 
L 1259 0 
L 628 0 
L 628 4666 
z
" transform="scale(0.015625)"/>
      </defs>
      <use xlink:href="#DejaVuSans-50"/>
      <use xlink:href="#DejaVuSans-72" x="58.552734"/>
      <use xlink:href="#DejaVuSans-65" x="97.416016"/>
      <use xlink:href="#DejaVuSans-64" x="158.939453"/>
     </g>
    </g>
   </g>
  </g>
 </g>
 <defs>
  <clipPath id="pe63940647a">
   <rect x="48.560938" y="18.718125" width="509.02" height="256.6"/>
  </clipPath>
 </defs>
</svg>
